<?xml version="1.0" encoding="UTF-8" standalone="no"?>
<svg
   viewBox="0 0 348 348"
   fill="none"
   xml:space="preserve"
   version="1.1"
   id="svg24"
   sodipodi:docname="Canny Maze.svg"
   inkscape:version="1.2.1 (9c6d41e410, 2022-07-14)"
   xmlns:inkscape="http://www.inkscape.org/namespaces/inkscape"
   xmlns:sodipodi="http://sodipodi.sourceforge.net/DTD/sodipodi-0.dtd"
   xmlns="http://www.w3.org/2000/svg"
   xmlns:svg="http://www.w3.org/2000/svg"><defs
     id="defs28" /><sodipodi:namedview
     id="namedview26"
     pagecolor="#505050"
     bordercolor="#eeeeee"
     borderopacity="1"
     inkscape:showpageshadow="0"
     inkscape:pageopacity="0"
     inkscape:pagecheckerboard="0"
     inkscape:deskcolor="#505050"
     showgrid="false"
     inkscape:zoom="1.5767669"
     inkscape:cx="291.73621"
     inkscape:cy="187.72591"
     inkscape:window-width="1920"
     inkscape:window-height="974"
     inkscape:window-x="-11"
     inkscape:window-y="-11"
     inkscape:window-maximized="1"
     inkscape:current-layer="svg24" /><path
     d="M5.08 5.78h336.91v337.67H5.08z"
     stroke-width="2"
     stroke="#000"
     id="path2" /><path
     d="M282.73 40.55c0-8.37 6.97-15.16 15.56-15.16 4.13 0 8.09 1.6 11 4.44a14.97 14.97 0 0 1 4.56 10.72c0 8.38-6.96 15.17-15.56 15.17-8.59 0-15.56-6.8-15.56-15.17zM61 61h225.55v226.06H61Z"
     stroke-width="2"
     stroke="#000"
     id="path4" /><path
     style="fill:#000;fill-rule:nonzero;stroke:none;stroke-width:1.04001px;stroke-linecap:butt;stroke-linejoin:miter;stroke-opacity:1"
     d="m9.78 173.55 46.14-76.1v145.57L9.76 172.44Zm-1.76.03 48.07 73.5 1.9 2.92V90l-1.92 3.18L8 172.47Z"
     id="path8" /><path
     style="fill:#000;fill-rule:nonzero;stroke:none;stroke-width:1.03952px;stroke-linecap:butt;stroke-linejoin:miter;stroke-opacity:1"
     d="m339.94 172.49-48.01-79.3L290 90v160.04l1.91-2.93 48.01-73.52zm-1.76-.03-46.1 70.6V97.44l46.08 76.11z"
     id="path10" /><path
     style="fill:#000;fill-rule:nonzero;stroke:none;stroke-width:1.04002px;stroke-linecap:butt;stroke-linejoin:miter;stroke-opacity:1"
     d="m166.46 9.78 76.1 46.14H96.98l70.58-46.16Zm-.03-1.76-73.5 48.07L90 58h160l-3.18-1.93L167.53 8Z"
     id="path12" /><path
     style="fill:#000;fill-rule:nonzero;stroke:none;stroke-width:1.03882px;stroke-linecap:butt;stroke-linejoin:miter;stroke-opacity:1"
     d="m173.48 338.15-76.04-46.07H242.9l-70.53 46.09zm.03 1.76 73.45-48 2.92-1.91H90l3.18 1.93 79.22 48z"
     id="path14" /><circle
     style="fill:#000;fill-opacity:0;stroke:#000;stroke-width:2.09179;stroke-dasharray:none;stroke-opacity:1"
     cx="37.5"
     cy="322.5"
     r="16.45"
     fill="none"
     id="circle16" /><circle
     style="fill:#000;fill-opacity:0;stroke:#000;stroke-width:2.09179;stroke-dasharray:none;stroke-opacity:1"
     cx="307.5"
     cy="322.5"
     r="16.45"
     fill="none"
     id="circle18" /><path
     d="M11.08 300.03v-8.52h1.08l4.17 6.59-.14.15v-6.74h1.18v8.52h-1.1l-4.15-6.49.14-.15v6.64zm11.27.1q-1.42 0-2.2-.84-.78-.83-.78-2.34v-5.44h1.2V297q0 .93.46 1.44.47.51 1.32.51.87 0 1.33-.5.48-.52.48-1.45v-5.48h1.2v5.44q0 1.51-.8 2.34-.78.83-2.2.83zm8.5-3 2.5-5.62h1.12v8.52h-1.16v-6.38l.05.38-2.1 4.82h-.83l-2.1-4.7.06-.5v6.38h-1.16v-8.52h1.12zm6.43 2.9v-1.1h2.31q.95 0 1.34-.37.4-.36.4-.95v-.02q0-.63-.34-1-.33-.39-1.1-.39h-2.6v-1.08h2.6q.66 0 1-.3.33-.32.33-.93 0-.64-.37-.95-.38-.32-1.13-.32h-2.44v-1.1h2.66q1.26 0 1.87.62.62.63.62 1.68 0 .64-.38 1.17-.37.53-1.17.68.79.11 1.22.7.44.58.44 1.33v.01q0 1.05-.67 1.68-.68.64-1.83.64zm-.7 0v-8.52h1.19v8.52zm7.75 0v-8.52h1.2v8.52zm.58 0v-1.13h4.89v1.13zm0-3.66v-1.14h4.24v1.14zm0-3.72v-1.14h4.89v1.14zm7.11 3.78v-1.14h2.9q.53 0 .84-.36.32-.36.32-.96t-.32-.96q-.31-.37-.83-.37h-2.91v-1.13h2.86q.74 0 1.3.3.56.31.86.86.31.55.31 1.3 0 .74-.3 1.3-.32.54-.88.85-.55.3-1.3.3zm-.52 3.6v-8.52h1.2v8.52zm4.8 0-1.96-3.86 1.19-.27 2.18 4.13zm5.35.1q-.62 0-1.18-.13-.54-.11-1.02-.35-.48-.23-.9-.58l.75-.92q.49.42 1.08.63.58.22 1.27.22.92 0 1.43-.35.51-.35.51-.97 0-.49-.26-.75-.25-.25-.68-.38-.41-.13-.9-.2l-.98-.2q-.49-.11-.9-.35-.4-.24-.66-.68-.25-.45-.25-1.2 0-1.19.8-1.84.79-.65 2.23-.65.68 0 1.34.22.65.21 1.28.67l-.68.95q-.49-.37-.98-.54-.48-.18-.96-.18-.88 0-1.36.35-.48.35-.48.99 0 .48.28.73.28.26.73.38.46.12.98.22.47.1.94.23t.85.38q.38.25.61.68.24.43.24 1.13v.01q0 1.18-.82 1.83-.82.64-2.31.64z"
     style="-inkscape-font-specification:Bahnschrift;fill:#000"
     aria-label="NUMBERS"
     id="path20" /><path
     d="M290.38 296.94v-1.13h2.9q.53 0 .84-.37.32-.36.32-.96t-.32-.96q-.31-.36-.84-.36h-2.9v-1.14h2.86q.74 0 1.3.31.55.3.86.86.3.55.3 1.3 0 .73-.3 1.29-.31.55-.87.86-.55.3-1.3.3zm-.52 3.6v-8.52h1.2v8.53zm4.79 0-1.95-3.86 1.19-.27 2.18 4.14zm3.03 0v-8.51h1.2v8.52zm.58 0v-1.13h4.9v1.14zm0-3.66v-1.13h4.25v1.13zm0-3.72v-1.13h4.9v1.13zm9.15 7.47q-.62 0-1.17-.11-.55-.12-1.03-.36-.47-.23-.89-.58l.75-.92q.48.43 1.07.64.58.2 1.27.2.93 0 1.44-.34.5-.34.5-.96v-.01q0-.49-.25-.74-.26-.26-.68-.38-.42-.13-.92-.22-.48-.08-.97-.19-.48-.11-.9-.34-.4-.25-.66-.7-.24-.44-.24-1.18 0-1.2.79-1.85.79-.65 2.23-.65.69 0 1.34.22.66.22 1.28.67l-.68.95q-.49-.37-.97-.54-.48-.18-.97-.18-.87 0-1.36.35-.48.35-.48.99 0 .49.28.74t.73.37q.46.12.98.22.47.1.94.23t.85.38q.39.25.62.68.23.44.23 1.13v.02q0 1.17-.82 1.82-.82.64-2.3.64zm4.71-.08v-8.52h1.2v8.52zm.58 0v-1.14h4.9v1.14zm0-3.67v-1.13h4.25v1.13zm0-3.72v-1.13h4.9v1.13zm8.06 7.39v-7.83h1.2v7.83zm-2.4-7.39v-1.13h6v1.13z"
     style="-inkscape-font-specification:Bahnschrift;fill:#000"
     aria-label="RESET"
     id="path22" /><path
     style="fill:none;stroke:#000000;stroke-width:1;stroke-dasharray:none"
     d="m 63.231959,277.14433 c 0,0 53.814431,-19.28351 60.541241,-163.68557 0,0 18.38659,-26.010306 33.85824,-26.234533 0,0 46.19073,-7.847938 54.26289,27.579893 23.54381,140.14176 21.97423,125.34279 21.97423,125.34279 0,0 3.81185,12.33247 14.79897,23.54381 l 28.02835,23.31959 -216.154643,0.89691 v -10.31444 z"
     id="path332" /><path
     style="fill:none;stroke:#000000;stroke-width:1;stroke-dasharray:none"
     d="m 122.65206,118.84021 c 0,0 -15.24742,7.39948 -13.45361,75.3402 l 3.36341,5.38145 v 0"
     id="path1011" /><path
     style="fill:none;stroke:#000000;stroke-width:1;stroke-dasharray:none"
     d="m 123.99742,113.01031 c 0,0 11.6598,-70.855671 53.14176,-25.561856"
     id="path1013" /><path
     style="fill:none;stroke:#000000;stroke-width:1;stroke-dasharray:none"
     d="m 192.83505,91.708763 c 0,0 -8.07216,-24.664949 -14.79897,-4.708763"
     id="path1015" /><path
     style="fill:none;stroke:#000000;stroke-width:1;stroke-dasharray:none"
     d="m 109.33214,162.47156 -11.211344,5.8299 c 0,0 -0.67268,22.42268 11.659794,26.68299"
     id="path1017" /><path
     style="fill:none;stroke:#000000;stroke-width:1;stroke-dasharray:none"
     d="m 102.74189,224.82715 c 0,0 6.34209,46.29727 70.08011,48.83411 63.73802,2.53684 59.93277,-36.78413 59.93277,-36.78413"
     id="path1021" /><path
     style="fill:none;stroke:#000000;stroke-width:1;stroke-dasharray:none"
     d="m 219.51804,160.77062 c 0,0 21.41366,-0.56057 6.27835,32.51289"
     id="path1023" /><path
     style="fill:none;stroke:#000000;stroke-width:1;stroke-dasharray:none"
     d="m 73.885369,269.856 c 0,0 13.952602,17.59931 19.026275,17.59931"
     id="path1025" /><path
     style="fill:none;stroke:#000000;stroke-width:1;stroke-dasharray:none"
     d="m 130.64709,286.66255 c 0,0 -35.198609,-15.69668 -43.918985,-31.71046"
     id="path1027" /><path
     style="fill:none;stroke:#000000;stroke-width:1;stroke-dasharray:none"
     d="m 250.19552,265.41654 c 0,0 -24.89271,21.72166 -29.33217,21.56311"
     id="path1029" /><path
     style="fill:none;stroke:#000000;stroke-width:1;stroke-dasharray:none"
     d="m 265.8922,278.10072 c 0,0 -5.86644,7.61051 -7.61051,8.24472"
     id="path1031" /><path
     style="fill:none;stroke:#000000;stroke-width:1;stroke-dasharray:none"
     d="m 125.25631,152.36875 c 0.47566,-13.79405 40.58939,-28.53941 40.58939,-28.53941 l -3.6467,-3.96381 c -31.23481,-3.01249 -39.32097,31.39336 -39.32097,31.39336 z"
     id="path1033" /><path
     style="fill:none;stroke:#000000;stroke-width:1;stroke-dasharray:none"
     d="m 186.61605,120.18264 2.21973,-11.73287 c 0,0 6.34209,-2.53684 9.9888,-2.06118 0,0 13.79405,11.09866 13.79405,14.42826 l 1.90262,9.51314 c 0,0 -11.73287,-14.74537 -16.96509,-13.00129 z"
     id="path1035" /><path
     style="fill:none;stroke:#000000;stroke-width:1;stroke-dasharray:none"
     d="m 136.03787,155.06414 c 0,0 11.41576,-12.04997 21.24601,-5.23222 0,0 -1.90263,16.64798 -21.24601,5.23222 z"
     id="path1037" /><path
     style="fill:none;stroke:#000000;stroke-width:1;stroke-dasharray:none"
     d="m 207.0693,150.30757 c -8.24472,-7.61051 -18.55062,-1.58552 -18.55062,-1.58552 0,0 8.56183,18.70916 18.55062,1.58552 z"
     id="path1039" /><path
     style="fill:none;stroke:#000000;stroke-width:1;stroke-dasharray:none"
     d="m 165.25515,126.91237 c 0,0 11.77191,25.78608 8.85696,51.68428"
     id="path1045" /><path
     style="fill:none;stroke:#000000;stroke-width:1;stroke-dasharray:none"
     d="m 187.11727,120.40979 c 0,0 -9.41753,31.95232 -4.93299,58.97165"
     id="path1047" /><path
     style="fill:none;stroke:#000000;stroke-width:1;stroke-dasharray:none"
     d="m 188.01418,178.26031 c 0,0 -10.09021,6.16624 -27.24356,-0.56057"
     id="path1049" /><path
     style="fill:none;stroke:#000000;stroke-width:1;stroke-dasharray:none"
     d="m 164.91881,162.90077 c 0,0 -3.13917,6.83892 -3.69974,14.91109"
     id="path1051" /><path
     style="fill:none;stroke:#000000;stroke-width:1;stroke-dasharray:none"
     d="m 184.76289,164.58247 c 0,0 1.79381,4.03609 2.80283,13.22939"
     id="path1086" /><path
     style="fill:none;stroke:#000000;stroke-width:1;stroke-dasharray:none"
     d="m 165.81572,164.24613 c 0,0 8.96907,5.94201 8.18428,13.67784"
     id="path1088" /><path
     style="fill:none;stroke:#000000;stroke-width:1;stroke-dasharray:none"
     d="m 184.65077,164.8067 c 0,0 -4.26031,2.69072 -2.46649,11.6598"
     id="path1090" /><path
     style="fill:none;stroke:#000000;stroke-width:1;stroke-dasharray:none"
     d="m 145.41108,180.95103 c 0,0 28.92526,25.78608 58.74743,7.06315"
     id="path1092" /><path
     style="fill:none;stroke:#000000;stroke-width:1;stroke-dasharray:none"
     d="m 136.66624,189.24742 c 0,0 0.67268,-8.52062 10.42654,-8.74484"
     id="path1094" /><path
     style="fill:none;stroke:#000000;stroke-width:1;stroke-dasharray:none"
     d="m 200.7951,184.09021 c 0,0 5.38145,2.35438 7.17526,6.83891"
     id="path1096" /><circle
     style="fill:none;stroke:#000000;stroke-width:1;stroke-dasharray:none"
     id="path1152"
     cx="148.43814"
     cy="153.25902"
     r="4.8208761" /><circle
     style="fill:none;stroke:#000000;stroke-width:1;stroke-dasharray:none"
     id="path1152-5"
     cx="194.96521"
     cy="150.90463"
     r="4.8208761" /><circle
     style="fill:#000000;stroke:#000000;stroke-width:1;stroke-dasharray:none;fill-opacity:1"
     id="path1176"
     cx="148.77449"
     cy="153.14691"
     r="1.4574742" /><circle
     style="fill:#000000;fill-opacity:1;stroke:#000000;stroke-width:1;stroke-dasharray:none"
     id="path1176-2"
     cx="194.96519"
     cy="151.57732"
     r="1.4574742" /><path
     style="fill:none;fill-opacity:1;stroke:#000000;stroke-width:1;stroke-dasharray:none"
     d="m 135.24511,149.67337 c 0,0 8.72037,-12.20853 19.97759,-8.08617"
     id="path1202" /><path
     style="fill:none;fill-opacity:1;stroke:#000000;stroke-width:1;stroke-dasharray:none"
     d="m 125.53378,154.3903 -3.92417,2.25937"
     id="path1204" /><path
     style="fill:none;fill-opacity:1;stroke:#000000;stroke-width:1;stroke-dasharray:none"
     d="m 122.1249,160.41528 6.46101,-3.25032"
     id="path1208" /><path
     style="fill:none;fill-opacity:1;stroke:#000000;stroke-width:1;stroke-dasharray:none"
     d="m 130.83634,159.08892 c 0,0 17.04124,10.59471 26.73905,-1.34536"
     id="path1210" /><path
     style="fill:none;fill-opacity:1;stroke:#000000;stroke-width:1;stroke-dasharray:none"
     d="m 188.35052,157.2951 c 0,0 9.30541,9.08119 14.12628,8.40851"
     id="path1212" /><path
     style="fill:none;fill-opacity:1;stroke:#000000;stroke-width:1;stroke-dasharray:none"
     d="m 212.90335,155.6134 c 0,0 -2.24227,10.09021 -10.76289,10.20232"
     id="path1214" /><path
     style="fill:none;fill-opacity:1;stroke:#000000;stroke-width:1;stroke-dasharray:none"
     d="m 187.45361,155.94974 c 0,0 -0.89691,-20.9652 8.4085,-20.18041"
     id="path1216" /><path
     style="fill:none;fill-opacity:1;stroke:#000000;stroke-width:1;stroke-dasharray:none"
     d="m 208.08247,153.59536 c 0,0 -1.45747,-19.95618 -12.78092,-18.49871"
     id="path1218" /><path
     style="fill:#000000;fill-opacity:1;stroke:#000000;stroke-width:0.112113"
     d="m 250.15653,265.51234 c -7.42453,6.36673 -14.93638,12.66352 -22.95206,18.28029 -0.95672,0.72179 -2.07139,1.25594 -2.98483,2.00877 -0.37038,0.66601 0.58346,0.87948 1.07224,0.75005 10.88602,0.002 21.77204,0.004 32.65806,0.006 1.07547,-0.53607 1.86496,-1.54021 2.72973,-2.36722 1.73293,-1.84779 3.39739,-3.78732 4.90819,-5.8086 0.2193,-0.70029 -0.736,-1.025 -1.10869,-1.47228 -4.5475,-3.81435 -9.11685,-7.60255 -13.67711,-11.40163 -0.24761,-0.12955 -0.40143,-0.13452 -0.64553,0.005 z"
     id="path904" /><path
     style="fill:#000000;fill-opacity:1;stroke:#000000;stroke-width:0.112113"
     d="m 86.882849,256.04993 c -0.816924,0.45935 -1.248739,1.40373 -1.862397,2.0908 -3.127051,4.22836 -6.833108,7.95259 -10.589636,11.63345 -0.436256,0.72788 0.595583,1.22692 0.905774,1.79255 4.04467,4.79309 8.201813,9.55562 13.066801,13.5411 0.734731,0.48545 1.379057,1.23622 2.240293,1.44504 12.444586,-4e-4 24.889176,-9.1e-4 37.333766,-0.002 0.77878,-0.10064 0.47461,-1.09025 -0.17314,-1.14895 -6.17632,-3.07919 -12.29186,-6.29933 -18.14727,-9.96265 -6.92609,-4.35258 -13.736599,-9.10159 -19.205263,-15.23461 -1.154364,-1.2587 -2.11035,-2.68539 -3.138257,-4.03672 -0.09746,-0.14233 -0.290411,-0.0788 -0.430671,-0.11848 z"
     id="path960" /></svg>
