<?xml version="1.0" encoding="UTF-8" standalone="no"?>
<svg
   viewBox="0 0 348 348"
   fill="none"
   xml:space="preserve"
   version="1.1"
   id="svg50"
   sodipodi:docname="Uncanny Maze.svg"
   inkscape:version="1.1.2 (0a00cf5339, 2022-02-04)"
   xmlns:inkscape="http://www.inkscape.org/namespaces/inkscape"
   xmlns:sodipodi="http://sodipodi.sourceforge.net/DTD/sodipodi-0.dtd"
   xmlns="http://www.w3.org/2000/svg"
   xmlns:svg="http://www.w3.org/2000/svg"><defs
     id="defs54" /><sodipodi:namedview
     id="namedview52"
     pagecolor="#505050"
     bordercolor="#eeeeee"
     borderopacity="1"
     inkscape:pageshadow="0"
     inkscape:pageopacity="0"
     inkscape:pagecheckerboard="0"
     showgrid="false"
     inkscape:zoom="2.4789376"
     inkscape:cx="88.142597"
     inkscape:cy="199.68231"
     inkscape:window-width="1440"
     inkscape:window-height="900"
     inkscape:window-x="0"
     inkscape:window-y="0"
     inkscape:window-maximized="1"
     inkscape:current-layer="svg50" /><path
     d="M5.08 5.78h336.91v337.67H5.08z"
     stroke-width="2"
     stroke="#000"
     id="path2" /><path
     d="M282.73 40.55c0-8.37 6.97-15.16 15.56-15.16 4.13 0 8.09 1.6 11 4.44a14.97 14.97 0 0 1 4.56 10.72c0 8.38-6.96 15.17-15.56 15.17-8.59 0-15.56-6.8-15.56-15.17zM61 61h225.55v226.06H61Z"
     stroke-width="2"
     stroke="#000"
     id="path4" /><path
     style="fill:#000;fill-rule:nonzero;stroke:none;stroke-width:1.04001px;stroke-linecap:butt;stroke-linejoin:miter;stroke-opacity:1"
     d="m9.78 173.55 46.14-76.1v145.57L9.76 172.44Zm-1.76.03 48.07 73.5 1.9 2.92V90l-1.92 3.18L8 172.47Z"
     id="path6" /><path
     style="fill:#000;fill-rule:nonzero;stroke:none;stroke-width:1.03952px;stroke-linecap:butt;stroke-linejoin:miter;stroke-opacity:1"
     d="m339.94 172.49-48.01-79.3L290 90v160.04l1.91-2.93 48.01-73.52zm-1.76-.03-46.1 70.6V97.44l46.08 76.11z"
     id="path8" /><path
     style="fill:#000;fill-rule:nonzero;stroke:none;stroke-width:1.04002px;stroke-linecap:butt;stroke-linejoin:miter;stroke-opacity:1"
     d="m166.46 9.78 76.1 46.14H96.98l70.58-46.16Zm-.03-1.76-73.5 48.07L90 58h160l-3.18-1.93L167.53 8Z"
     id="path10" /><path
     style="fill:#000;fill-rule:nonzero;stroke:none;stroke-width:1.03882px;stroke-linecap:butt;stroke-linejoin:miter;stroke-opacity:1"
     d="m173.48 338.15-76.04-46.07H242.9l-70.53 46.09zm.03 1.76 73.45-48 2.92-1.91H90l3.18 1.93 79.22 48z"
     id="path12" /><circle
     style="fill:#000;fill-opacity:0;stroke:#000;stroke-width:2.09179;stroke-dasharray:none;stroke-opacity:1"
     cx="37.5"
     cy="322.5"
     r="16.45"
     fill="none"
     id="circle14" /><circle
     style="fill:#000000;fill-opacity:0;stroke:#000000;stroke-width:2.09179;stroke-dasharray:none;stroke-opacity:1"
     cx="35.857571"
     cy="46.838139"
     r="16.450001"
     fill="none"
     id="circle14-3" /><circle
     style="fill:#000;fill-opacity:0;stroke:#000;stroke-width:2.09179;stroke-dasharray:none;stroke-opacity:1"
     cx="307.5"
     cy="322.5"
     r="16.45"
     fill="none"
     id="circle16" /><path
     d="M11.08 300.03v-8.52h1.08l4.17 6.59-.14.15v-6.74h1.18v8.52h-1.1l-4.15-6.49.14-.15v6.64zm11.27.1q-1.42 0-2.2-.84-.78-.83-.78-2.34v-5.44h1.2V297q0 .93.46 1.44.47.51 1.32.51.87 0 1.33-.5.48-.52.48-1.45v-5.48h1.2v5.44q0 1.51-.8 2.34-.78.83-2.2.83zm8.5-3 2.5-5.62h1.12v8.52h-1.16v-6.38l.05.38-2.1 4.82h-.83l-2.1-4.7.06-.5v6.38h-1.16v-8.52h1.12zm6.43 2.9v-1.1h2.31q.95 0 1.34-.37.4-.36.4-.95v-.02q0-.63-.34-1-.33-.39-1.1-.39h-2.6v-1.08h2.6q.66 0 1-.3.33-.32.33-.93 0-.64-.37-.95-.38-.32-1.13-.32h-2.44v-1.1h2.66q1.26 0 1.87.62.62.63.62 1.68 0 .64-.38 1.17-.37.53-1.17.68.79.11 1.22.7.44.58.44 1.33v.01q0 1.05-.67 1.68-.68.64-1.83.64zm-.7 0v-8.52h1.19v8.52zm7.75 0v-8.52h1.2v8.52zm.58 0v-1.13h4.89v1.13zm0-3.66v-1.14h4.24v1.14zm0-3.72v-1.14h4.89v1.14zm7.11 3.78v-1.14h2.9q.53 0 .84-.36.32-.36.32-.96t-.32-.96q-.31-.37-.83-.37h-2.91v-1.13h2.86q.74 0 1.3.3.56.31.86.86.31.55.31 1.3 0 .74-.3 1.3-.32.54-.88.85-.55.3-1.3.3zm-.52 3.6v-8.52h1.2v8.52zm4.8 0-1.96-3.86 1.19-.27 2.18 4.13zm5.35.1q-.62 0-1.18-.13-.54-.11-1.02-.35-.48-.23-.9-.58l.75-.92q.49.42 1.08.63.58.22 1.27.22.92 0 1.43-.35.51-.35.51-.97 0-.49-.26-.75-.25-.25-.68-.38-.41-.13-.9-.2l-.98-.2q-.49-.11-.9-.35-.4-.24-.66-.68-.25-.45-.25-1.2 0-1.19.8-1.84.79-.65 2.23-.65.68 0 1.34.22.65.21 1.28.67l-.68.95q-.49-.37-.98-.54-.48-.18-.96-.18-.88 0-1.36.35-.48.35-.48.99 0 .48.28.73.28.26.73.38.46.12.98.22.47.1.94.23t.85.38q.38.25.61.68.24.43.24 1.13v.01q0 1.18-.82 1.83-.82.64-2.31.64z"
     style="-inkscape-font-specification:Bahnschrift;fill:#000"
     aria-label="NUMBERS"
     id="path18" /><path
     d="M290.38 296.94v-1.13h2.9q.53 0 .84-.37.32-.36.32-.96t-.32-.96q-.31-.36-.84-.36h-2.9v-1.14h2.86q.74 0 1.3.31.55.3.86.86.3.55.3 1.3 0 .73-.3 1.29-.31.55-.87.86-.55.3-1.3.3zm-.52 3.6v-8.52h1.2v8.53zm4.79 0-1.95-3.86 1.19-.27 2.18 4.14zm3.03 0v-8.51h1.2v8.52zm.58 0v-1.13h4.9v1.14zm0-3.66v-1.13h4.25v1.13zm0-3.72v-1.13h4.9v1.13zm9.15 7.47q-.62 0-1.17-.11-.55-.12-1.03-.36-.47-.23-.89-.58l.75-.92q.48.43 1.07.64.58.2 1.27.2.93 0 1.44-.34.5-.34.5-.96v-.01q0-.49-.25-.74-.26-.26-.68-.38-.42-.13-.92-.22-.48-.08-.97-.19-.48-.11-.9-.34-.4-.25-.66-.7-.24-.44-.24-1.18 0-1.2.79-1.85.79-.65 2.23-.65.69 0 1.34.22.66.22 1.28.67l-.68.95q-.49-.37-.97-.54-.48-.18-.97-.18-.87 0-1.36.35-.48.35-.48.99 0 .49.28.74t.73.37q.46.12.98.22.47.1.94.23t.85.38q.39.25.62.68.23.44.23 1.13v.02q0 1.17-.82 1.82-.82.64-2.3.64zm4.71-.08v-8.52h1.2v8.52zm.58 0v-1.14h4.9v1.14zm0-3.67v-1.13h4.25v1.13zm0-3.72v-1.13h4.9v1.13zm8.06 7.39v-7.83h1.2v7.83zm-2.4-7.39v-1.13h6v1.13z"
     style="-inkscape-font-specification:Bahnschrift;fill:#000"
     aria-label="RESET"
     id="path20" /><g
     aria-label="APPEND"
     id="text2043"
     style="font-size:12px;font-family:Bahnschrift;-inkscape-font-specification:Bahnschrift;text-align:center;text-anchor:middle;fill:#000000;stroke-width:5"><path
       d="m 16.554039,14.060431 h 1.019531 l 3.140625,8.519531 h -1.289062 l -2.361328,-6.873047 -2.361328,6.873047 h -1.289063 z m -1.693359,5.513671 h 4.482422 v 1.136719 H 14.86068 Z"
       id="path3929" /><path
       d="m 22.618492,18.138556 h 2.72461 q 0.386718,0 0.679687,-0.181641 0.292969,-0.181641 0.451172,-0.515625 0.164062,-0.333984 0.164062,-0.767578 v 0 q 0,-0.439453 -0.164062,-0.773438 -0.158203,-0.333984 -0.451172,-0.515625 -0.292969,-0.1875 -0.679687,-0.1875 h -2.72461 v -1.136718 h 2.683594 q 0.761719,0 1.341797,0.328125 0.580078,0.322265 0.896484,0.914062 0.322266,0.591797 0.322266,1.371094 v 0 q 0,0.779297 -0.322266,1.371094 -0.316406,0.585937 -0.896484,0.908203 -0.580078,0.322265 -1.341797,0.322265 h -2.683594 z m -0.615234,-4.078125 h 1.195312 v 8.519531 h -1.195312 z"
       id="path3931" /><path
       d="m 30.089195,18.138556 h 2.72461 q 0.386718,0 0.679687,-0.181641 0.292969,-0.181641 0.451172,-0.515625 0.164063,-0.333984 0.164063,-0.767578 v 0 q 0,-0.439453 -0.164063,-0.773438 -0.158203,-0.333984 -0.451172,-0.515625 -0.292969,-0.1875 -0.679687,-0.1875 h -2.72461 v -1.136718 h 2.683594 q 0.761719,0 1.341797,0.328125 0.580078,0.322265 0.896484,0.914062 0.322266,0.591797 0.322266,1.371094 v 0 q 0,0.779297 -0.322266,1.371094 -0.316406,0.585937 -0.896484,0.908203 -0.580078,0.322265 -1.341797,0.322265 h -2.683594 z m -0.615234,-4.078125 h 1.195312 v 8.519531 h -1.195312 z"
       id="path3933" /><path
       d="m 36.944664,14.060431 h 1.195313 v 8.519531 h -1.195313 z m 0.580078,7.382812 h 4.892578 v 1.136719 h -4.892578 z m 0,-3.662109 h 4.248047 v 1.136718 h -4.248047 z m 0,-3.720703 h 4.892578 v 1.136718 h -4.892578 z"
       id="path3935" /><path
       d="m 44.116539,14.060431 h 1.083984 l 4.166016,6.585937 -0.140625,0.152344 v -6.738281 h 1.183594 v 8.513671 h -1.095703 l -4.154297,-6.486328 0.140625,-0.152343 v 6.638671 h -1.183594 z"
       id="path3937" /><path
       d="m 53.327477,21.443243 h 1.927734 q 0.943359,0 1.458984,-0.486328 0.521485,-0.492188 0.521485,-1.382813 V 17.06629 q 0,-0.890625 -0.521485,-1.376953 -0.515625,-0.492188 -1.458984,-0.492188 h -1.927734 v -1.136718 h 1.892578 q 1.02539,0 1.751953,0.357421 0.726562,0.357422 1.107422,1.042969 0.380859,0.685547 0.380859,1.652344 v 2.414062 q 0,0.966797 -0.380859,1.652344 -0.38086,0.685547 -1.113282,1.042969 -0.726562,0.357422 -1.751953,0.357422 h -1.886718 z m -0.808594,-7.382812 h 1.195312 v 8.519531 h -1.195312 z"
       id="path3939" /></g><path
     style="fill:none;stroke-width:2;stroke:#000000;stroke-opacity:1;stroke-miterlimit:4;stroke-dasharray:none"
     d="m 78.476954,284.43427 c 0,0 22.307856,-17.88671 34.652116,-87.75496"
     id="path548" /><path
     style="fill:none;stroke:#000000;stroke-width:2;stroke-miterlimit:4;stroke-dasharray:none;stroke-opacity:1"
     d="m 113.12907,196.67931 c 0,0 2.89136,-95.66863 44.71592,-93.46112"
     id="path1563" /><path
     style="fill:none;stroke:#000000;stroke-width:2;stroke-miterlimit:4;stroke-dasharray:none;stroke-opacity:1"
     d="m 157.84499,103.21819 c 0,0 62.85598,-4.441213 67.29292,94.27068"
     id="path1567" /><path
     style="fill:none;stroke:#000000;stroke-width:2;stroke-miterlimit:4;stroke-dasharray:none;stroke-opacity:1"
     d="m 261.76496,287.56832 c 0,0 -36.81045,-3.63753 -36.62705,-90.07945"
     id="path1569" /><path
     style="fill:none;stroke:#000000;stroke-width:2;stroke-miterlimit:4;stroke-dasharray:none;stroke-opacity:1"
     d="m 104.96356,230.82337 c 0,0 11.46381,-1.8735 13.95421,19.86978 2.4904,21.74328 55.10441,16.17448 55.10441,16.17448 0,0 16.00013,5.47461 19.23118,-21.08417 0,0 -6.10061,3.76941 -7.8023,-20.01882 l -1.08245,-5.91568 -38.59793,0.45123"
     id="path1684" /><path
     style="fill:none;stroke:#000000;stroke-width:2;stroke-miterlimit:4;stroke-dasharray:none;stroke-opacity:1"
     d="m 184.36861,219.84896 -0.79749,-12.47519 -21.4262,-8.36347 20.80296,-2.02036"
     id="path1686" /><path
     style="fill:none;stroke:#000000;stroke-width:2;stroke-miterlimit:4;stroke-dasharray:none;stroke-opacity:1"
     d="m 182.94788,196.98994 c 0,0 -14.86315,-50.85986 11.17438,-57.18367 l 6.03261,-19.76197"
     id="path1688" /><path
     style="fill:none;stroke:#000000;stroke-width:2;stroke-miterlimit:4;stroke-dasharray:none;stroke-opacity:1"
     d="m 78.476954,284.43427 v 0 0 L 61,287.06"
     id="path2114" /><path
     style="fill:none;stroke:#000000;stroke-width:0.806797;stroke-miterlimit:4;stroke-dasharray:none;stroke-opacity:1"
     d="m 78.329601,285.56623 c 2.961568,-0.85722 10.06209,-10.67148 15.421213,-21.31503 3.869903,-7.68586 6.607946,-14.39091 9.976426,-24.43072 2.9044,-8.65662 2.71478,-8.46281 6.19888,-6.33616 3.7236,2.27283 6.1749,7.46242 7.63932,16.17299 0.52987,3.15174 1.07807,5.03444 1.84896,6.34986 3.44013,5.87013 11.24207,9.64684 24.19551,11.71241 3.59253,0.57287 7.27916,0.7174 19.36313,0.7591 8.20916,0.0283 15.82705,-0.10273 16.92864,-0.29125 7.51457,-1.28603 12.6844,-8.85057 14.34685,-20.99243 0.24273,-1.77281 0.35506,-3.30955 0.24962,-3.41499 -0.10544,-0.10544 -0.68449,0.13117 -1.28677,0.52579 -1.08846,0.71319 -1.1019,0.70986 -2.22966,-0.55232 -1.48615,-1.6633 -2.99501,-6.52132 -3.6021,-11.59758 -0.26534,-2.21869 -0.81951,-6.21234 -1.2315,-8.87477 -0.41198,-2.66243 -0.87058,-7.29143 -1.01911,-10.28666 -0.14853,-2.99524 -0.42005,-5.73447 -0.6034,-6.0872 -0.18334,-0.35272 -4.04977,-2.07624 -8.59205,-3.83003 -4.54229,-1.7538 -8.20838,-3.23904 -8.14688,-3.30055 0.0615,-0.0615 2.99724,-0.38349 6.52386,-0.71553 8.2537,-0.7771 9.03413,-0.91378 9.03413,-1.5822 0,-0.30426 0.1775,-0.61371 0.39445,-0.68767 0.24276,-0.0828 0.16803,-0.98768 -0.19434,-2.35316 -2.14911,-8.09842 -3.42823,-17.86325 -3.42425,-26.14072 0.003,-7.06329 0.36286,-9.93803 1.81906,-14.54772 1.9057,-6.03263 5.38396,-10.03519 10.53325,-12.12104 l 2.68782,-1.08877 2.50133,-8.18232 2.50132,-8.18233 1.51118,1.75022 c 2.8937,3.3514 7.46694,10.67091 10.04422,16.07587 5.08185,10.65741 8.2478,21.60303 10.32478,35.69577 1.25436,8.51107 1.62681,13.3597 2.04515,26.62431 0.4204,13.33001 1.11981,21.41061 2.62986,30.38404 3.87207,23.00954 12.00241,40.00957 23.12197,48.34662 1.69975,1.27441 3.26291,2.46122 3.47369,2.63734 0.21078,0.17612 -39.36263,0.30385 -87.9409,0.28384 -54.40014,-0.0224 -87.832317,-0.17874 -87.043659,-0.40701 z"
     id="path2210" /><path
     style="fill:none;fill-opacity:1;stroke:#000000;stroke-width:2;stroke-miterlimit:4;stroke-dasharray:none;stroke-opacity:1"
     d="m 135.52322,182.18582 c -3.36557,-0.80022 -5.03489,-1.65306 -7.20038,-3.67863 -2.25827,-2.11234 -3.93728,-5.45401 -4.51615,-8.98829 -0.45308,-2.76631 -0.48914,-5.77819 -0.0767,-6.40746 0.55463,-0.84622 9.55819,-6.53075 14.21822,-8.97689 5.98641,-3.14239 9.8995,-4.75128 13.91266,-5.72029 9.25444,-2.23456 13.36144,0.60623 13.8301,9.56623 l 0.19381,3.70529 -5.21763,-1.31576 -5.21764,-1.31575 -0.45772,0.96991 c -0.39018,0.82678 -0.2891,1.23582 0.68493,2.77169 1.48136,2.33588 3.64702,11.66262 3.64702,15.70648 0,0.63023 -3.45967,1.79785 -9.07647,3.06326 -4.586,1.03319 -11.72279,1.3338 -14.72405,0.62021 z m 18.94586,-8.98645 c 1.73427,-1.97523 1.66685,-3.69745 -0.2268,-5.79349 -0.79799,-0.88327 -2.02331,-1.96259 -2.72294,-2.39849 -0.69964,-0.4359 -2.22227,-1.68855 -3.38363,-2.78366 -3.18725,-3.00543 -6.05973,-4.02791 -8.15919,-2.90431 -0.89176,0.47726 -1.62951,2.44621 -1.62951,4.34898 v 1.39627 l 4.94164,-0.27506 c 2.7179,-0.15129 5.28399,-0.37294 5.70244,-0.49257 0.71913,-0.2056 0.75051,0.0141 0.57273,4.01132 -0.16266,3.65731 -0.33362,4.47719 -1.26506,6.06656 -0.59233,1.01075 -1.07698,1.92907 -1.07698,2.04072 0,0.11165 1.35523,-0.25265 3.01161,-0.80956 2.19747,-0.73884 3.34252,-1.38945 4.23569,-2.40671 z"
     id="path2401" /><path
     style="fill:none;fill-opacity:1;stroke:#000000;stroke-width:2;stroke-miterlimit:4;stroke-dasharray:none;stroke-opacity:1"
     d="m 113.80499,177.86706 c 0,0 -22.035055,-9.73365 -19.99514,16.51718"
     id="path2725" /><path
     style="fill:none;fill-opacity:1;stroke:#000000;stroke-width:2;stroke-miterlimit:4;stroke-dasharray:none;stroke-opacity:1"
     d="m 93.80985,194.38424 c 0,0 -4.45526,21.73093 15.7906,22.17"
     id="path2892" /><path
     style="fill:none;fill-opacity:1;stroke:#000000;stroke-width:2;stroke-miterlimit:4;stroke-dasharray:none;stroke-opacity:1"
     d="m 113.80499,177.86706 c 0,0 -13.90159,-89.471095 43.79335,-87.132619 0,0 67.0542,-9.309674 67.53957,106.754429"
     id="path3009" /><path
     style="fill:none;fill-opacity:1;stroke:#000000;stroke-width:2;stroke-miterlimit:4;stroke-dasharray:none;stroke-opacity:1"
     d="m 136.61137,220.65752 c 0,0 -7.95952,-31.56112 26.88266,-33.48647 0,0 -27.38922,22.81335 -26.88266,33.48647 z"
     id="path3011" /><path
     style="fill:#000000;fill-opacity:1;stroke:#000000;stroke-width:0.806797;stroke-miterlimit:4;stroke-dasharray:none;stroke-opacity:1"
     d="m 82.499665,282.88328 c 4.638162,-5.15701 11.500715,-16.90382 15.96648,-27.33026 1.045321,-2.44056 3.310425,-8.40704 5.033555,-13.25885 1.72313,-4.85181 3.30855,-8.99704 3.52314,-9.21164 0.54706,-0.54706 3.25518,1.23747 5.03703,3.31916 1.84386,2.15413 3.19119,5.53982 4.33035,10.88166 1.47802,6.93084 1.92308,8.25548 3.48123,10.36144 3.39003,4.58187 9.69385,7.80316 19.22269,9.82288 6.3361,1.343 12.31694,1.67174 27.369,1.50433 16.26848,-0.18093 16.57337,-0.23339 20.17904,-3.47199 2.73229,-2.45412 4.87494,-5.81948 6.15793,-9.67195 1.20664,-3.6232 2.24312,-8.72799 2.24312,-11.04762 0,-1.47471 -0.084,-1.60691 -0.90765,-1.42828 -0.4992,0.10827 -1.20978,0.32442 -1.57906,0.48033 -0.85115,0.35937 -2.38774,-2.19308 -3.33862,-5.54582 -0.89446,-3.15377 -2.90621,-17.66357 -3.45079,-24.8888 -0.24247,-3.21711 -0.52923,-6.14597 -0.63724,-6.5086 -0.20102,-0.67492 -3.7156,-2.33772 -10.86167,-5.13884 l -4.03398,-1.58125 1.81529,-0.24191 c 0.99841,-0.13306 3.61572,-0.42833 5.81624,-0.65617 5.3208,-0.55091 5.73617,-0.68246 6.27694,-1.988 0.36311,-0.8766 0.33223,-1.63315 -0.14261,-3.49463 -2.14311,-8.40156 -3.10869,-16.54711 -3.1033,-26.17928 0.004,-6.38929 0.12418,-7.73761 1.00142,-11.19582 0.54855,-2.16243 1.58159,-5.02783 2.29565,-6.36753 1.77035,-3.32151 5.24308,-6.4621 8.72216,-7.88796 l 2.75409,-1.12873 2.38311,-7.84152 2.38311,-7.84153 0.95563,1.16478 c 1.88794,2.30112 6.11998,8.90234 8.12095,12.66721 5.5592,10.45975 9.20323,21.94822 11.53308,36.36016 1.40084,8.66526 1.74566,12.7077 2.43801,28.58145 0.33385,7.65449 0.79881,15.91407 1.03324,18.35464 2.72351,28.354 11.65883,50.65889 24.23626,60.50005 l 2.84803,2.22843 H 166.00751 80.413491 Z"
     id="path6358" /><path
     style="fill:#000000;fill-opacity:1;stroke:#000000;stroke-width:0.806797;stroke-miterlimit:4;stroke-dasharray:none;stroke-opacity:1"
     d="m 137.09777,211.27606 c 0.33572,-4.20636 0.90078,-6.39672 2.55612,-9.90851 1.61895,-3.4346 4.86793,-6.93019 8.22336,-8.84754 2.41619,-1.38066 7.2629,-3.09136 10.01566,-3.53515 l 1.77765,-0.28658 -6.36396,6.19272 c -6.94521,6.75833 -11.36998,11.80344 -14.46232,16.48987 l -1.99636,3.02549 z"
     id="path6508" /><path
     style="fill:#000000;fill-opacity:1;stroke:#000000;stroke-width:0.806797;stroke-miterlimit:4;stroke-dasharray:none;stroke-opacity:1"
     d="m 136.40944,181.12439 c -6.32786,-1.12052 -10.67203,-5.94569 -11.43891,-12.70547 -0.53964,-4.75668 -0.72013,-4.47208 5.24529,-8.27108 10.11676,-6.44275 19.40601,-10.51258 25.3951,-11.12618 3.0906,-0.31664 4.97235,0.19517 6.46312,1.7579 1.4036,1.47135 1.9233,2.95042 2.26502,6.44632 0.2478,2.53502 0.2026,2.90133 -0.33831,2.74189 -3.2461,-0.95685 -9.00906,-2.2154 -9.30551,-2.03219 -0.20517,0.1268 -0.57405,0.90366 -0.81974,1.72636 -0.40076,1.34194 -0.31894,1.76553 0.79536,4.1179 1.58611,3.34839 1.56665,3.85952 -0.0868,2.2792 -2.65551,-2.53806 -7.78856,-6.53609 -9.52975,-7.42253 -3.06042,-1.55807 -5.96157,-1.03568 -7.03136,1.26608 -0.32085,0.69034 -0.71315,2.41269 -0.87177,3.82744 l -0.28842,2.57229 5.79867,-0.28988 5.79867,-0.28987 -0.22543,3.39486 c -0.16436,2.47526 -0.46613,3.80285 -1.11405,4.90098 -0.48874,0.82836 -0.88862,1.97316 -0.88862,2.54401 0,0.99277 0.0796,1.02892 1.83064,0.83156 1.00685,-0.11349 2.98386,-0.77407 4.39335,-1.46796 2.5538,-1.25723 3.70943,-2.4659 4.25163,-4.44674 0.23509,-0.85888 0.36846,-0.57388 0.75426,1.61177 0.88162,4.99457 0.89261,4.96791 -2.45596,5.96082 -6.45797,1.91491 -14.45407,2.80605 -18.59648,2.07252 z"
     id="path6547" /><path
     style="fill:#000000;fill-opacity:1;stroke:#000000;stroke-width:0.806797;stroke-miterlimit:4;stroke-dasharray:none;stroke-opacity:1"
     d="m 113.7478,163.9505 c -0.16709,-3.53284 -0.19651,-9.60011 -0.0654,-13.48282 1.14835,-34.0016 13.02244,-54.224957 33.98433,-57.880404 5.08847,-0.887355 17.11601,-0.918187 21.63248,-0.05546 21.53986,4.114531 37.7228,20.387514 46.48409,46.742684 3.25015,9.77692 5.40156,20.10576 2.5415,12.20167 -4.10677,-11.34951 -9.02308,-20.31907 -14.99629,-27.35994 -1.22887,-1.44853 -2.23432,-2.92388 -2.23432,-3.27855 0,-0.35467 -0.47544,-0.82562 -1.05653,-1.04656 -0.5811,-0.22093 -2.26024,-1.50536 -3.73144,-2.85429 -6.95166,-6.37395 -16.78367,-11.42953 -26.67712,-13.71729 -5.10949,-1.18151 -14.66769,-1.47759 -18.70487,-0.5794 -13.9098,3.09464 -24.40651,17.50852 -31.46614,43.20872 -1.50155,5.46629 -3.46623,14.65397 -4.30877,20.14966 -0.27212,1.77495 -0.63044,3.48552 -0.79625,3.80125 -0.16582,0.31575 -0.4382,-2.31644 -0.60529,-5.84927 z"
     id="path6624" /><path
     style="fill:#000000;fill-opacity:1;stroke:#000000;stroke-width:0.806797;stroke-miterlimit:4;stroke-dasharray:none;stroke-opacity:1"
     d="m 105.91041,214.9742 c -4.25893,-0.83486 -8.138289,-3.78127 -9.711849,-7.37623 -1.43778,-3.28477 -1.684665,-6.03587 -1.290005,-14.37487 0.318148,-6.72233 0.502377,-8.16477 1.262291,-9.88326 1.836045,-4.15208 4.493963,-5.82142 9.291423,-5.83559 1.64947,-0.005 4.07828,0.29396 5.39738,0.66408 l 2.39834,0.67294 -0.25438,3.0585 c -0.1399,1.68217 -0.51953,6.23526 -0.8436,10.11797 -0.37762,4.52424 -1.11004,9.52228 -2.03947,13.91725 -0.79763,3.77178 -1.55449,7.44775 -1.68191,8.16882 -0.12741,0.72108 -0.34406,1.29116 -0.48143,1.26685 -0.13737,-0.0243 -1.05843,-0.20271 -2.04679,-0.39646 z"
     id="path6702" /></svg>
